<svg width="15" height="10" viewBox="0 0 15 10" fill="none" xmlns="http://www.w3.org/2000/svg">
<path d="M8.36348 8.97792L14.5061 2.66154C14.6483 2.51544 14.7251 2.322 14.7222 2.11691C14.7194 1.91183 14.6372 1.7206 14.491 1.57853L14.026 1.12615C13.723 0.831798 13.2372 0.838567 12.943 1.14125L7.78476 6.44527L2.47485 1.28132C2.32864 1.13925 2.13531 1.06238 1.93034 1.06523C1.72514 1.06809 1.53403 1.15032 1.39173 1.29642L0.939582 1.76157C0.797396 1.90778 0.720635 2.10111 0.723493 2.30619C0.726351 2.51128 0.808471 2.70251 0.954675 2.84458L7.27672 8.99306C7.42338 9.13547 7.61762 9.21211 7.82293 9.20879C8.02904 9.20637 8.22096 9.12436 8.36348 8.97792Z" fill="#28553F"/>
</svg>
