<svg width="11" height="17" viewBox="0 0 11 17" fill="none" xmlns="http://www.w3.org/2000/svg">
<path d="M9.79618 7.84963L2.3793 0.432884C2.20775 0.261205 1.97876 0.166626 1.73459 0.166626C1.49042 0.166626 1.26142 0.261205 1.08988 0.432884L0.543676 0.97895C0.188259 1.33477 0.188259 1.91309 0.543676 2.26837L6.77181 8.4965L0.536766 14.7315C0.365222 14.9032 0.270508 15.1321 0.270508 15.3761C0.270508 15.6204 0.365222 15.8493 0.536766 16.0211L1.08297 16.567C1.25465 16.7387 1.48351 16.8333 1.72768 16.8333C1.97185 16.8333 2.20084 16.7387 2.37239 16.567L9.79618 9.14352C9.96812 8.9713 10.0626 8.74135 10.062 8.49691C10.0626 8.25152 9.96812 8.02171 9.79618 7.84963Z" fill="#B1B1B1"/>
</svg>
