<svg width="17" height="17" viewBox="0 0 17 17" fill="none" xmlns="http://www.w3.org/2000/svg">
<g clip-path="url(#clip0_519_3431)">
<path d="M4.03683 7.84963L11.4537 0.432884C11.6253 0.261205 11.8542 0.166626 12.0984 0.166626C12.3426 0.166626 12.5716 0.261205 12.7431 0.432884L13.2893 0.97895C13.6447 1.33477 13.6447 1.91309 13.2893 2.26837L7.0612 8.4965L13.2962 14.7315C13.4678 14.9032 13.5625 15.1321 13.5625 15.3761C13.5625 15.6204 13.4678 15.8493 13.2962 16.0211L12.75 16.567C12.5784 16.7387 12.3495 16.8333 12.1053 16.8333C11.8612 16.8333 11.6322 16.7387 11.4606 16.567L4.03683 9.14352C3.86488 8.9713 3.77044 8.74135 3.77098 8.49691C3.77044 8.25152 3.86488 8.02171 4.03683 7.84963Z" fill="#B1B1B1"/>
</g>
<defs>
<clipPath id="clip0_519_3431">
<rect width="16.6667" height="16.6667" fill="white" transform="matrix(-1 0 0 1 17 0.166626)"/>
</clipPath>
</defs>
</svg>
