<svg width="11" height="17" viewBox="0 0 11 17" fill="none" xmlns="http://www.w3.org/2000/svg">
<path d="M10.1302 7.8495L2.71328 0.432762C2.54174 0.261083 2.31274 0.166504 2.06857 0.166504C1.8244 0.166504 1.59541 0.261083 1.42386 0.432762L0.877661 0.978828C0.522244 1.33465 0.522244 1.91297 0.877661 2.26825L7.10579 8.49638L0.87075 14.7314C0.699207 14.9031 0.604492 15.132 0.604492 15.376C0.604492 15.6203 0.699207 15.8492 0.87075 16.021L1.41695 16.5669C1.58863 16.7386 1.81749 16.8332 2.06166 16.8332C2.30583 16.8332 2.53483 16.7386 2.70637 16.5669L10.1302 9.1434C10.3021 8.97118 10.3966 8.74123 10.396 8.49679C10.3966 8.2514 10.3021 8.02159 10.1302 7.8495Z" fill="white"/>
</svg>
