<svg width="11" height="17" viewBox="0 0 11 17" fill="none" xmlns="http://www.w3.org/2000/svg">
<path d="M1.03683 7.84975L8.45371 0.433006C8.62525 0.261327 8.85425 0.166748 9.09842 0.166748C9.34259 0.166748 9.57159 0.261327 9.74313 0.433006L10.2893 0.979072C10.6447 1.3349 10.6447 1.91321 10.2893 2.26849L4.0612 8.49663L10.2962 14.7317C10.4678 14.9033 10.5625 15.1322 10.5625 15.3762C10.5625 15.6206 10.4678 15.8494 10.2962 16.0212L9.75004 16.5672C9.57836 16.7388 9.3495 16.8334 9.10533 16.8334C8.86116 16.8334 8.63216 16.7388 8.46062 16.5672L1.03683 9.14364C0.864883 8.97142 0.77044 8.74148 0.770982 8.49703C0.77044 8.25164 0.864883 8.02183 1.03683 7.84975Z" fill="white"/>
</svg>
